<svg width="903" height="512" viewBox="0 0 1113 1012" fill="none" xmlns="http://www.w3.org/2000/svg">
<path fill-rule="evenodd" clip-rule="evenodd" d="M385.327 201.106C236.077 137 121.571 228.897 50.8936 372.475L46.0334 382.348C-24.703 526.045 -24.822 667.001 124.428 731.107L727.732 990.238C876.982 1054.34 991.459 962.506 1062.19 818.809L1067.06 808.936C1137.73 665.358 1137.88 524.342 988.631 460.236L385.327 201.106ZM477.396 597.457L350.05 542.759L291.025 662.665L227.352 635.316L286.377 515.41L159.03 460.712L188.308 401.235L315.655 455.933L374.68 336.027L438.353 363.376L379.328 483.282L506.675 537.98L477.396 597.457ZM761.368 647.375L697.695 620.026L726.973 560.549L790.646 587.898L761.368 647.375ZM830.158 821.027L766.484 793.679L795.763 734.201L859.436 761.55L830.158 821.027Z" fill="#121212"/>
<path fill-rule="evenodd" clip-rule="evenodd" d="M684.419 333.603L620.746 306.254L711.626 121.636L839.746 179.621L925.431 0.697815L989.104 28.0467L873.367 263.16L746.021 208.462L684.419 333.603Z" fill="#121212"/>
</svg>
