<svg width="1168" height="1036" viewBox="0 0 1168 1036" fill="none" xmlns="http://www.w3.org/2000/svg">
<path d="M339.502 292.903C325.321 299.803 315.464 305.914 313.783 308.152C310.018 313.15 300.778 342.106 299.645 352.417C299.042 357.848 307.969 362.284 326.167 365.627L324.972 372.642L326.251 365.642C344.455 368.953 354.373 367.962 355.734 362.652C358.322 352.608 359.905 322.254 358.166 316.262C357.278 313.268 349.087 303.076 339.502 292.903Z" fill="#2B2B2B"/>
<path d="M304.421 238.503C299.979 235.176 275.487 227.08 262.818 224.764C261.812 224.58 260.924 224.446 260.156 224.365C254.711 223.76 250.263 232.668 246.922 250.866C243.591 269.167 244.587 279.07 249.894 280.43C250.653 280.626 251.544 280.819 252.553 281.004C265.224 283.32 290.991 284.429 296.296 282.864C298.999 282.084 308.203 275.029 319.655 264.216C312.76 250.022 306.659 240.186 304.421 238.503Z" fill="#2B2B2B"/>
<path d="M437.949 256.862C427.624 254.136 397.308 252.746 391.545 254.428C388.855 255.211 379.635 262.277 368.17 273.087C373.699 284.471 380.66 296.725 383.422 298.792C387.846 302.133 412.325 310.21 425.01 312.529C426.017 312.713 426.919 312.847 427.673 312.928C433.118 313.533 437.566 304.625 440.907 286.427C440.994 285.951 441.145 285.43 441.315 284.981C444.249 268.139 443.242 258.22 437.949 256.862Z" fill="#2B2B2B"/>
<path d="M732.059 429.936C693.096 422.814 655.589 448.729 648.467 487.695C641.345 526.656 667.26 564.166 706.223 571.287C745.187 578.409 782.694 552.494 789.816 513.531C796.938 474.565 771.025 437.058 732.059 429.936ZM696.141 523.868C696.024 524.354 694.898 524.898 694.26 524.9C682.763 524.72 672.114 521.545 662.334 515.532C661.487 515.018 660.747 514.316 660.051 513.612C656.553 510.036 657.256 506.271 661.836 504.403C663.821 503.594 665.918 502.878 668.026 502.511C678.845 500.626 689.67 498.872 701.07 496.977C700.385 500.728 699.821 504.212 699.036 507.628C698.922 508.099 697.721 508.487 696.975 508.611C690.985 509.641 684.988 510.557 679.009 511.606C677.62 511.844 676.298 512.428 674.931 512.858C674.902 513.172 674.871 513.498 674.828 513.809C675.982 514.467 677.087 515.55 678.291 515.685C681.808 516.082 685.368 516.312 688.892 516.176C691.75 516.06 694.576 515.319 697.871 514.78C697.29 518.059 696.824 520.997 696.141 523.868ZM729.787 468.731C729.227 469.581 729.126 470.764 728.932 471.83C724.95 493.526 720.996 515.245 717.03 536.946C716.84 537.982 716.654 539.002 716.393 540.43C710.39 537.25 704.821 534.31 699.282 531.3C698.848 531.062 698.562 530.256 698.52 529.685C698.463 528.963 698.718 528.216 698.853 527.474C703.566 501.844 708.279 476.214 712.994 450.586C713.158 449.689 713.319 448.809 713.547 447.562C715.233 448.232 716.726 448.691 718.104 449.378C725.976 453.335 733.849 457.277 741.65 461.379C743.682 462.446 745.518 463.968 747.317 465.439C753.181 470.258 755.947 476.494 755.526 484.098C755.227 489.369 754.531 494.521 751.942 499.27C747.572 507.27 739.277 508.241 731.737 502.799C731.148 502.372 730.986 500.882 731.15 499.985C732.654 491.288 734.353 482.629 735.814 473.925C736.099 472.197 735.965 470.236 735.381 468.609C735.023 467.631 733.442 466.621 732.367 466.567C731.514 466.486 730.394 467.785 729.787 468.731ZM771.699 520.91C775.611 524.677 775.166 528.3 770.155 530.379C767.054 531.678 763.648 532.414 760.318 532.993C747.542 535.215 734.723 537.269 721.921 539.388C721.369 539.474 720.791 539.484 719.807 539.564C720.457 536.007 720.942 532.798 721.701 529.667C721.864 529.018 723.048 528.322 723.838 528.192C733.098 526.599 742.379 525.13 751.659 523.597C752.882 523.399 754.152 523.256 755.325 522.862C756.032 522.632 756.589 521.963 757.211 521.484C756.691 520.914 756.277 520.098 755.635 519.808C751.962 518.137 748.08 517.919 744.149 518.534C738.148 519.46 732.165 520.452 726.16 521.409C725.281 521.551 724.393 521.649 723.077 521.815C723.776 517.992 724.355 514.511 725.118 511.046C725.217 510.586 726.193 510.07 726.814 509.996C742.405 508.042 756.952 510.859 770.165 519.627C770.725 519.992 771.221 520.446 771.699 520.91Z" fill="#2B2B2B"/>
<path d="M501.55 195.583C507.766 196.719 513.745 192.588 514.881 186.372L520.488 155.697C521.622 149.495 517.495 143.502 511.277 142.366C505.059 141.229 499.082 145.361 497.946 151.577L492.339 182.252C491.205 188.468 495.334 194.447 501.55 195.583Z" fill="#2B2B2B"/>
<path d="M348.351 244.405C360.929 238.283 372.183 231.645 374.073 229.142C377.84 224.128 387.078 195.188 388.206 184.905C388.8 179.443 379.874 175.003 361.689 171.666C343.402 168.337 333.485 169.331 332.122 174.64C329.532 184.698 327.951 215.038 329.69 221.03C330.572 224.04 338.766 234.235 348.351 244.405Z" fill="#2B2B2B"/>
<path d="M1030.57 292.276C1036.79 293.413 1042.76 289.281 1043.9 283.065L1049.51 252.39C1050.64 246.188 1046.51 240.195 1040.29 239.059C1034.08 237.923 1028.1 242.054 1026.96 248.27L1021.36 278.945C1020.22 285.161 1024.35 291.141 1030.57 292.276Z" fill="#2B2B2B"/>
<path d="M1126.97 539.416C1148.09 543.278 1168.35 529.283 1172.21 508.158C1176.07 487.034 1162.08 466.779 1140.95 462.917C1119.83 459.056 1099.57 473.051 1095.71 494.176C1091.85 515.3 1105.85 535.555 1126.97 539.416Z" fill="#2B2B2B"/>
<path d="M1274.85 253.559C1272.75 248.561 1267.77 243.757 1260.86 239.252L1262.99 227.603C1262.99 227.603 1204.6 170.489 1109.57 190.88C1109.57 190.88 1106.33 192.763 1102.97 204.94C1097.19 205.168 1092.1 205.686 1087.89 206.553C1069.46 210.36 1058.83 206.522 1058.83 206.522L999.05 195.595C1000.37 200.638 1000.74 206 999.738 211.461L965.929 396.434C962.278 416.412 943.053 429.697 923.072 426.045L554.79 358.731C534.812 355.079 521.529 335.855 525.181 315.874L558.99 130.902C559.989 125.441 562.227 120.555 565.247 116.305L507.763 105.798C507.763 105.798 496.468 105.613 480.57 95.5469C476.925 93.2469 472.368 90.9507 467.036 88.7043C468.205 76.1282 465.842 73.2212 465.842 73.2212C384.163 20.5448 309.351 53.2988 309.351 53.2988L307.222 64.9475C299.145 66.7124 292.799 69.4461 289.071 73.3793C289.071 73.3793 218.319 146.533 191.815 200.587C165.308 254.643 29.3756 560.522 23.0111 686.218C16.6466 811.913 196.642 876.524 262.487 788.89C328.347 701.256 381.863 590.212 381.863 590.212C381.863 590.212 403.4 579.798 407.783 580.6C407.783 580.6 477.194 663.514 579.098 605.863L815.215 649.02C890.137 738.977 984.39 685.991 984.39 685.991C988.771 686.792 1005.23 704.151 1005.23 704.151C1005.23 704.151 1016.01 826.943 1046.61 932.211C1077.21 1037.47 1268.41 1040.71 1306.92 920.889C1345.43 801.072 1326.48 466.88 1320.82 406.946C1315.16 347.013 1274.85 253.559 1274.85 253.559ZM483.947 149.015C486.493 135.086 499.908 125.817 513.837 128.363C527.767 130.909 537.034 144.324 534.488 158.253L528.881 188.928C526.335 202.858 512.922 212.127 498.992 209.581C485.063 207.035 475.794 193.62 478.34 179.69L483.947 149.015ZM318.348 171.079C323.686 150.267 352.054 155.435 364.151 157.632C376.358 159.878 404.692 165.073 402.351 186.432C401.253 196.475 391.751 229.304 385.444 237.685C380.124 244.786 359.517 254.939 350.344 259.22C349.716 259.569 349.029 259.847 348.318 260.008C347.374 260.197 346.414 260.209 345.506 260.043C345.421 260.027 345.337 260.012 345.241 259.994C344.336 259.798 343.449 259.421 342.668 258.874C342.12 258.469 341.62 258.032 341.222 257.524C334.13 250.254 318.509 233.524 316.046 224.998C313.108 214.944 315.82 180.876 318.348 171.079ZM246.343 294.223C225.532 288.871 230.7 260.517 232.914 248.407C235.145 236.197 240.338 207.863 261.714 210.207C262.747 210.325 264.001 210.509 265.374 210.76C277.05 212.894 305.164 221.274 312.967 227.112C319.699 232.163 329.229 251.018 334.468 262.179C334.724 262.602 334.926 263.074 335.085 263.549C335.508 264.884 335.536 266.308 335.197 267.605C334.989 268.435 334.616 269.208 334.12 269.94C333.731 270.491 333.267 270.971 332.757 271.384C323.863 279.988 308.346 294.194 300.284 296.513C290.975 299.239 261.704 297.113 250.014 294.977C248.606 294.753 247.38 294.486 246.343 294.223ZM369.504 366.214C364.152 387.026 335.798 381.86 323.685 379.658L323.644 379.65C311.481 377.413 283.133 372.215 285.502 350.861C286.6 340.818 296.101 307.977 302.406 299.61C307.47 292.883 326.313 283.346 337.457 278.106C337.831 277.886 338.211 277.707 338.627 277.568C339.14 277.373 339.67 277.253 340.201 277.191C342.086 276.928 344.028 277.47 345.559 278.662C346.038 279.055 346.453 279.476 346.813 279.948C353.975 287.317 369.386 303.85 371.837 312.286C374.741 322.365 372.013 356.446 369.504 366.214ZM454.728 289.718C452.693 301.095 447.482 329.439 426.125 327.086C425.076 326.965 423.837 326.783 422.451 326.53C410.761 324.393 382.633 316.011 374.871 310.181C367.341 304.521 356.108 281.04 353.351 275.082C353.044 274.548 352.814 273.984 352.648 273.377C352.579 273.118 352.522 272.876 352.486 272.609C352.196 270.793 352.602 268.883 353.723 267.339C354.155 266.723 354.667 266.209 355.24 265.765C364.153 257.134 379.554 243.093 387.575 240.77C396.911 238.051 426.183 240.174 437.859 242.308C439.245 242.562 440.47 242.83 441.494 243.088C462.223 248.412 457.173 276.6 454.947 288.779C454.9 289.085 454.828 289.403 454.728 289.718ZM485.95 557.586C444.662 550.04 417.217 510.312 424.762 469.029C432.309 427.741 472.037 400.279 513.323 407.825C554.608 415.371 582.058 455.098 574.509 496.399C566.966 537.671 527.223 565.13 485.95 557.586ZM704.945 578.285C662.118 570.458 633.637 529.254 641.467 486.415C649.298 443.572 690.51 415.11 733.339 422.938C776.166 430.766 804.647 471.969 796.817 514.81C788.989 557.649 747.772 586.113 704.945 578.285ZM1176.32 269.403C1205.13 274.67 1224.29 302.391 1219.02 331.204C1213.75 360.019 1186.03 379.17 1157.22 373.903C1128.41 368.636 1109.25 340.918 1114.52 312.103C1119.79 283.29 1147.51 264.137 1176.32 269.403ZM1012.97 245.709C1015.51 231.78 1028.93 222.51 1042.86 225.056C1056.79 227.603 1066.05 241.017 1063.51 254.947L1057.9 285.622C1055.36 299.552 1041.94 308.821 1028.01 306.275C1014.08 303.729 1004.82 290.314 1007.36 276.384L1012.97 245.709ZM905.962 634.356C864.675 626.809 837.229 587.081 844.775 545.798C852.321 504.511 892.05 477.049 933.335 484.595C974.62 492.141 1002.07 531.867 994.52 573.168C986.976 614.44 947.236 641.9 905.962 634.356ZM1051.05 447.237C1022.23 441.971 1003.08 414.25 1008.35 385.437C1013.61 356.624 1041.33 337.471 1070.15 342.737C1098.96 348.004 1118.11 375.724 1112.85 404.537C1107.58 433.35 1079.86 452.504 1051.05 447.237ZM1124.41 553.415C1095.59 548.148 1076.44 520.43 1081.71 491.615C1086.98 462.802 1114.69 443.648 1143.51 448.915C1172.32 454.182 1191.48 481.903 1186.21 510.715C1180.94 539.531 1153.21 558.679 1124.41 553.415ZM1230.58 480.051C1201.76 474.785 1182.61 447.064 1187.88 418.251C1193.14 389.438 1220.86 370.285 1249.68 375.552C1278.49 380.818 1297.64 408.539 1292.38 437.352C1287.11 466.165 1259.39 485.317 1230.58 480.051Z" fill="#121212"/>
<path d="M1159.78 359.889C1180.91 363.75 1201.16 349.755 1205.03 328.63C1208.89 307.506 1194.89 287.251 1173.77 283.39C1152.64 279.529 1132.39 293.523 1128.53 314.648C1124.67 335.773 1138.66 356.027 1159.78 359.889Z" fill="#2B2B2B"/>
<path d="M1053.6 433.254C1074.73 437.115 1094.98 423.12 1098.84 401.996C1102.7 380.871 1088.71 360.616 1067.58 356.755C1046.46 352.894 1026.2 366.889 1022.34 388.013C1018.48 409.138 1032.48 429.393 1053.6 433.254Z" fill="#2B2B2B"/>
<path d="M572.99 133.464L539.18 318.437C536.939 330.701 545.084 342.492 557.348 344.734L925.614 412.045C937.864 414.284 949.669 406.142 951.911 393.875L985.72 208.903C986.8 202.994 985.423 197.231 982.385 192.553L581.891 119.351C577.399 122.637 574.07 127.555 572.99 133.464Z" fill="#2B2B2B"/>
<path d="M930.776 498.608C897.217 492.474 864.912 514.796 858.775 548.37C852.639 581.944 874.961 614.234 908.521 620.368C942.081 626.502 974.383 604.194 980.519 570.622C986.656 537.051 964.336 504.742 930.776 498.608Z" fill="#2B2B2B"/>
<path d="M510.761 421.838C477.203 415.704 444.896 438.026 438.76 471.6C432.623 505.174 454.948 537.465 488.506 543.598C522.065 549.732 554.37 527.424 560.506 493.853C566.642 460.281 544.318 427.972 510.761 421.838Z" fill="#2B2B2B"/>
</svg>
