<svg width="940" height="1175" viewBox="0 0 1440 1175" fill="none" xmlns="http://www.w3.org/2000/svg">
<path d="M425.728 709.9L554.621 664.402L581.583 740.783L452.69 786.281L493.133 900.853L407.204 931.185L366.761 816.614L237.869 862.112L210.907 785.731L339.799 740.233L299.357 625.661L385.285 595.329L425.728 709.9ZM1032.71 581.539C997.134 594.096 977.321 629.952 988.483 661.574C999.645 693.195 1037.58 708.668 1073.15 696.11C1108.73 683.553 1128.54 647.697 1117.38 616.075C1106.21 584.453 1068.28 568.981 1032.71 581.539ZM1362.5 78.5801L1578.2 689.628L203.343 1174.94L-12.3532 563.896L546.183 366.736L532.702 328.546L790.487 237.549L803.968 275.74L1362.5 78.5801ZM584.104 611.045L455.211 656.544L414.768 541.972L242.911 602.637L283.354 717.208L154.461 762.707L208.385 915.468L337.278 869.97L377.721 984.542L549.578 923.877L509.135 809.306L638.028 763.807L584.104 611.045ZM1160.34 600.909C1141.72 548.168 1078.56 522.404 1019.23 543.348C959.893 564.293 926.901 623.999 945.519 676.74C964.136 729.481 1027.3 755.245 1086.63 734.301C1145.97 713.356 1178.96 653.65 1160.34 600.909ZM1418.13 509.912C1399.51 457.171 1336.35 431.407 1277.01 452.351C1217.68 473.296 1184.69 533.002 1203.3 585.743C1221.92 638.484 1285.08 664.248 1344.42 643.304C1403.75 622.359 1436.74 562.653 1418.13 509.912ZM1290.49 490.542C1254.92 503.099 1235.11 538.955 1246.27 570.577C1257.43 602.199 1295.36 617.671 1330.94 605.113C1366.51 592.556 1386.32 556.7 1375.16 525.078C1364 493.457 1326.07 477.984 1290.49 490.542ZM610.192 0.54804L524.263 30.8803L605.149 260.023L691.078 229.691L610.192 0.54804Z" fill="#121212"/>
</svg>
